<?xml version="1.0" encoding="utf-8"?>
<?xml-stylesheet type="text/xsl" href="rss1.xsl"?>
<rss version="2.0" xmlns:atom="http://www.w3.org/2005/Atom" xmlns:content="http://purl.org/rss/1.0/modules/content/" xmlns:dc="http://purl.org/dc/elements/1.1/" xmlns:media="http://search.yahoo.com/mrss/">
<channel>
 <title>Getty</title>
 <link>http://www.gettyimg.com/</link>
 <atom:link href="http://www.gettyimg.com/" rel="self" type="application/rss+xml" />

 
                <item>
                <title><![CDATA[【Apple Music】WEB-RiP - Green Day - Look Ma, No Brains! (1440p AM WEB-DL AAC2.0 H.265)]]></title>
                <link><![CDATA[https://sharemania.us/threads/green-day-look-ma-no-brains-1440p-am-web-dl-aac2-0-h-265.238466/]]></link>
                <description><![CDATA[<article>
<blockquote class="messageText SelectQuoteContainer ugc baseHtml">
<div style="text-align: center"><img src="https://i.gyazo.com/3c81afd682cac3bfafaa64ea33faed52.png" class="bbCodeImage LbImage" alt="[​IMG]" data-url="https://i.gyazo.com/3c81afd682cac3bfafaa64ea33faed52.png" style=""> <br>
<br>
<div class="bbCodeBlock bbCodeCode">
<div class="type">Code:</div>
<pre>General
Unique ID                      : 175385269853547116195737728670454109128 (0x83F1F96BD35B2974DCBFA8A1DBB5D3C8)
Format                         : Matroska
Format version                 : Version 4
File size                      : 190 MiB
Duration                       : 2 min 12 s
Overall bit rate               : 12.0 Mb/s
Frame rate                     : 23.976 FPS
Encoded date                   : 2023-11-13 12:59:34 UTC
Writing application            : mkvmerge v67.0.0 ('Under Stars') 64-bit
Writing library                : libebml v1.4.2 + libmatroska v1.6.4
Cover                          : Yes
Attachments                    : cover.jpg

Video
ID                             : 1
Format                         : HEVC
Format/Info                    : High Efficiency Video Coding
Format profile                 : Main 10@L5@High
Codec ID                       : V_MPEGH/ISO/HEVC
Duration                       : 2 min 12 s
Bit rate                       : 11.7 Mb/s
Width                          : 1 920 pixels
Height                         : 1 440 pixels
Display aspect ratio           : 4:3
Frame rate mode                : Constant
Frame rate                     : 23.976 (23976/1000) FPS
Color space                    : YUV
Chroma subsampling             : 4:2:0
Bit depth                      : 10 bits
Bits/(Pixel*Frame)             : 0.177
Stream size                    : 185 MiB (98%)
Default                        : Yes
Forced                         : No
Color range                    : Limited
Color primaries                : BT.709
Transfer characteristics       : BT.709
Matrix coefficients            : BT.709

Audio
ID                             : 2
Format                         : AAC LC
Format/Info                    : Advanced Audio Codec Low Complexity
Codec ID                       : A_AAC-2
Duration                       : 2 min 12 s
Bit rate                       : 274 kb/s
Channel(s)                     : 2 channels
Channel layout                 : L R
Sampling rate                  : 48.0 kHz
Frame rate                     : 46.875 FPS (1024 SPF)
Compression mode               : Lossy
Stream size                    : 4.33 MiB (2%)
Default                        : Yes
Forced                         : No</pre>
</div>
<div class="bbCodeBlock bbCodeVfcHH HiddenContent">
<div class="attribution type">Hidden Content:</div>
<blockquote>You must either reply or click 'Like' to see the hidden information contained here.</blockquote>
</div></div>
<div class="messageTextEndMarker">&nbsp;</div>
</blockquote>
</article>]]></description>
                <author><![CDATA[Rey619Spear]]></author>
                </item>

                </channel></rss>